# xmcd
#
# Track frame offsets:
#	150
#	16597
#	36200
#	53442
#	70687
#	86657
#	105190
#	118092
#	133442
#	146827
#	165347
#	181902
#	197005
#	214007
#	231602
#	246155
#	263752
#
# Disc length: 3726 seconds
#
# Revision: 2
# Processed by: cddbd v1.5.2PL0 Copyright (c) Steve Scherf et al.
# Submitted via: EasyCDDAExtractor 15.3.0.1
#
DISCID=e80e8c11
DTITLE=Daniela Romo - Mis Mejores Canciones - 17 Super Exitos Vol. II
DYEAR=1993
DGENRE=Latin
TTITLE0=En Todo Momento Solo Tuya
TTITLE1=Todo, Todo, Todo
TTITLE2=Es Mejor Perdonar
TTITLE3=Y Cae La Gota De Agua
TTITLE4=Coco Loco
TTITLE5=Quiero Amanecer Con Alguien
TTITLE6=Mujer De Todos, Mujer De Nadie
TTITLE7=Amor Prohibido
TTITLE8=Me Alimento De Ti (A Dueto Con Mijares)
TTITLE9=Para Que Te Quedes Conmigo
TTITLE10=Ya No Somos Amantes
TTITLE11=El Poder Del Amor
TTITLE12=Ruleta Rusa
TTITLE13=Yo No Te Pido La Luna (Non Voglio Mica La Luna)
TTITLE14=Veneno Para Dos
TTITLE15=Lo Que Las Mujeres Callamos
TTITLE16=Adelante Corazon
EXTD=
EXTT0=
EXTT1=
EXTT2=
EXTT3=
EXTT4=
EXTT5=
EXTT6=
EXTT7=
EXTT8=
EXTT9=
EXTT10=
EXTT11=
EXTT12=
EXTT13=
EXTT14=
EXTT15=
EXTT16=
PLAYORDER=
